<?xml version="1.0" encoding="UTF-8"?>
<svg id="Layer_2" data-name="Layer 2" xmlns="http://www.w3.org/2000/svg" xmlns:xlink="http://www.w3.org/1999/xlink" viewBox="0 0 268.85 278.97">
  <defs>
    <style>
      .cls-1 {
        fill: url(#linear-gradient-2);
      }

      .cls-2 {
        font-family: Montserrat-Medium, Montserrat;
        font-size: 24.1px;
        font-weight: 500;
      }

      .cls-3 {
        fill: url(#linear-gradient-10);
      }

      .cls-4 {
        letter-spacing: .5em;
      }

      .cls-5 {
        fill: url(#linear-gradient-4);
      }

      .cls-6 {
        fill: url(#linear-gradient-3);
      }

      .cls-7 {
        fill: url(#linear-gradient-5);
      }

      .cls-8 {
        fill: url(#linear-gradient-8);
      }

      .cls-9 {
        letter-spacing: .5em;
      }

      .cls-10 {
        fill: url(#linear-gradient-7);
      }

      .cls-11 {
        fill: #ffc112;
      }

      .cls-12 {
        fill: url(#linear-gradient-9);
      }

      .cls-13 {
        letter-spacing: .5em;
      }

      .cls-14 {
        fill: url(#linear-gradient-6);
      }

      .cls-15 {
        letter-spacing: .5em;
      }

      .cls-16 {
        fill: url(#linear-gradient);
      }
    </style>
    <linearGradient id="linear-gradient" x1="17.11" y1="143.31" x2="239.53" y2="47.92" gradientUnits="userSpaceOnUse">
      <stop offset=".19" stop-color="#025129"/>
      <stop offset="1" stop-color="#2fb749"/>
    </linearGradient>
    <linearGradient id="linear-gradient-2" x1="0" y1="217.64" x2="242.82" y2="217.37" xlink:href="#linear-gradient"/>
    <linearGradient id="linear-gradient-3" x1="0" y1="217.66" x2="271.19" y2="217.36" xlink:href="#linear-gradient"/>
    <linearGradient id="linear-gradient-4" x1="0" y1="217.7" x2="271.19" y2="217.4" xlink:href="#linear-gradient"/>
    <linearGradient id="linear-gradient-5" x1="0" y1="217.74" x2="271.19" y2="217.43" xlink:href="#linear-gradient"/>
    <linearGradient id="linear-gradient-6" x1="0" y1="217.76" x2="271.19" y2="217.45" xlink:href="#linear-gradient"/>
    <linearGradient id="linear-gradient-7" x1="0" y1="217.8" x2="271.19" y2="217.49" xlink:href="#linear-gradient"/>
    <linearGradient id="linear-gradient-8" x1="0" y1="217.84" x2="271.19" y2="217.53" xlink:href="#linear-gradient"/>
    <linearGradient id="linear-gradient-9" x1="0" y1="217.87" x2="271.19" y2="217.57" xlink:href="#linear-gradient"/>
    <linearGradient id="linear-gradient-10" x1="0" y1="217.91" x2="271.19" y2="217.6" xlink:href="#linear-gradient"/>
  </defs>
  <g id="Layer_1-2" data-name="Layer 1">
    <g>
      <path class="cls-16" d="M229.62,77.89c-.34,23.4-17.74,36.93-19.87,38.53-3.5,2.59-13.41,9.24-27.83,9.78-14.38.54-24.75-5.32-28.43-7.64.21-1.63.41-3.27.61-4.9.2.11.39.22.59.33,19.03,10.56,42.04,5.74,53.37-9.5,8.86-11.91,9.6-28.85,1.99-43.11-.65-1.26-1.38-2.44-2.17-3.56-6.71-9.53-18.08-14.22-29.93-14.47-33.83-.73-31.41,52.28-44.1,82.54-1.4,3.34-5.42,17.15-19.53,26.11-12.73,8.08-25.42,7.3-29.31,6.91-3.95-.17-18.75-1.29-31.49-13.14-13.66-12.7-15.31-28.74-15.6-32.41-1.35-18.36,7.63-35.99,23.24-45.56,16.07-9.85,36.52-9.55,52.43.77v5.96c-.4-.28-.81-.56-1.22-.82-14.65-9.53-33.47-8.84-46.32,1.43-10.88,8.71-16.05,23.14-13.6,37.45,1.59,9.28,7.15,15.35,9.91,18.19,2.73,2.96,6.15,5.76,10.42,7.95,7.19,3.68,14,4.18,18.04,4.13,3.31-.59,12.57-2.7,20.48-10.85,9.09-9.36,10.31-20.43,10.55-23.54,1.53-9.2,3.6-19.2,6.42-29.81,2.67-10.06,9.55-49.3,48.15-51.82,21.51-1.41,35.61,12.65,38.83,15.89,2.36,2.38,14.66,15.23,14.37,35.16Z"/>
      <path class="cls-11" d="M112.37,73.71v2.5c-3.29-1.87-12.63-6.59-24.46-4.81-14.66,2.2-27.21,13.49-31.03,28.05-4.21,16.05,4.02,29.1,5.48,31.33-2.76-2.84-8.32-8.91-9.91-18.19-2.45-14.31,2.72-28.74,13.6-37.45,12.85-10.27,31.67-10.96,46.32-1.43Z"/>
      <path class="cls-11" d="M208.06,104.49c-11.33,15.24-34.34,20.06-53.37,9.5.18-1.04.37-2.08.56-3.12,2.48,1.31,15.47,7.87,30.38,2.76,18.18-6.24,23.55-24.44,24.42-27.63,3.29-12.08.22-22.52-2.17-28.18.79,1.12,1.52,2.3,2.17,3.56,7.61,14.26,6.87,31.2-1.99,43.11Z"/>
      <polygon class="cls-11" points="229.63 56.88 230.23 61.18 240.44 59.03 229.63 56.88"/>
      <polygon class="cls-11" points="214.41 36.41 219.02 41.44 230.86 28.73 214.41 36.41"/>
      <polygon class="cls-11" points="194.92 25.06 201.4 27.87 208.74 7.86 194.92 25.06"/>
      <polygon class="cls-11" points="179.78 0 176.34 22.85 183.37 22.85 179.78 0"/>
      <polygon class="cls-11" points="150.78 9.98 157.78 27.87 163.85 25.12 150.78 9.98"/>
      <polygon class="cls-11" points="144.7 36.24 141.38 39.79 128.88 30.28 144.7 36.24"/>
      <polygon class="cls-11" points="130.37 60.66 121.32 58.48 131.05 57.6 130.37 60.66"/>
      <path class="cls-1" d="M2.47,200.54h11.52v25.23h15.42v8.93H2.47v-34.16Z"/>
      <path class="cls-6" d="M32.57,200.54h11.52v34.16h-11.52v-34.16Z"/>
      <path class="cls-5" d="M80.15,234.7l-.1-15.57-7.42,12.49h-5.07l-7.42-11.96v15.03h-10.49v-34.16h9.47l11.13,18.2,10.83-18.2h9.47l.1,34.16h-10.49Z"/>
      <path class="cls-7" d="M96.21,200.54h11.52v34.16h-11.52v-34.16Z"/>
      <path class="cls-14" d="M120.7,209.47h-10v-8.93h31.52v8.93h-10v25.23h-11.52v-25.23Z"/>
      <path class="cls-10" d="M145.2,200.54h11.52v25.23h15.42v8.93h-26.94v-34.16Z"/>
      <path class="cls-8" d="M203.71,226.02v8.69h-28.4v-34.16h27.77v8.69h-16.44v4h14.44v8.29h-14.44v4.49h17.08Z"/>
      <path class="cls-12" d="M206,231.97l3.71-8.39c3.22,1.9,7.51,3.12,11.27,3.12,3.27,0,4.44-.68,4.44-1.85,0-4.29-18.88-.83-18.88-13.57,0-6.34,5.32-11.52,15.91-11.52,4.59,0,9.32.98,12.88,2.98l-3.46,8.34c-3.37-1.71-6.54-2.54-9.52-2.54-3.37,0-4.44.98-4.44,2.15,0,4.1,18.88.68,18.88,13.27,0,6.25-5.32,11.52-15.91,11.52-5.71,0-11.47-1.42-14.88-3.51Z"/>
      <path class="cls-3" d="M238.06,231.97l3.71-8.39c3.22,1.9,7.51,3.12,11.27,3.12,3.27,0,4.44-.68,4.44-1.85,0-4.29-18.88-.83-18.88-13.57,0-6.34,5.32-11.52,15.91-11.52,4.59,0,9.32.98,12.88,2.98l-3.46,8.34c-3.37-1.71-6.54-2.54-9.52-2.54-3.37,0-4.44.98-4.44,2.15,0,4.1,18.88.68,18.88,13.27,0,6.25-5.32,11.52-15.91,11.52-5.71,0-11.47-1.42-14.88-3.51Z"/>
      <text class="cls-2" transform="translate(0 272.63)"><tspan class="cls-4" x="0" y="0">SO</tspan><tspan class="cls-13" x="59.31" y="0">L</tspan><tspan class="cls-15" x="85.75" y="0">AR T</tspan><tspan class="cls-9" x="189.75" y="0">E</tspan><tspan class="cls-15" x="217.87" y="0">CH</tspan></text>
    </g>
  </g>
</svg>